<svg width="128" height="128" viewBox="0 0 128 128" fill="none" xmlns="http://www.w3.org/2000/svg">
<style>
  path {
    fill: #003E4A;
  }
  @media (prefers-color-scheme: dark) {
    path {
      fill: #fff;
    }
  }
</style>
<path d="M78.6376 64.064L63.5377 90.2154C63.0608 91.0414 61.8044 90.704 61.8044 89.7501V66.251C61.8044 65.7392 61.3856 65.3204 60.8737 65.3204H48.4262C47.705 65.3204 47.2629 64.541 47.6235 63.9244L62.7234 37.773C63.2004 36.947 64.4568 37.2844 64.4568 38.2383V61.7374C64.4568 62.2492 64.8755 62.668 65.3874 62.668H77.8349C78.5562 62.668 78.9982 63.4474 78.6376 64.064Z"/>
<path d="M63.584 25.593C70.6513 25.593 76.3805 19.8638 76.3805 12.7965C76.3805 5.72919 70.6513 0 63.584 0C56.5167 0 50.7875 5.72919 50.7875 12.7965C50.7875 19.8638 56.5167 25.593 63.584 25.593Z"/>
<path d="M18.7965 51.1861C25.8638 51.1861 31.593 45.4569 31.593 38.3895C31.593 31.3222 25.8638 25.593 18.7965 25.593C11.7292 25.593 6 31.3222 6 38.3895C6 45.4569 11.7292 51.1861 18.7965 51.1861Z"/>
<path d="M18.7965 102.395C25.8638 102.395 31.593 96.6662 31.593 89.5988C31.593 82.5315 25.8638 76.8023 18.7965 76.8023C11.7292 76.8023 6 82.5315 6 89.5988C6 96.6662 11.7292 102.395 18.7965 102.395Z"/>
<path d="M108.372 51.1861C115.439 51.1861 121.168 45.4569 121.168 38.3895C121.168 31.3222 115.439 25.593 108.372 25.593C101.305 25.593 95.5755 31.3222 95.5755 38.3895C95.5755 45.4569 101.305 51.1861 108.372 51.1861Z"/>
<path d="M108.372 102.395C115.439 102.395 121.168 96.6662 121.168 89.5988C121.168 82.5315 115.439 76.8023 108.372 76.8023C101.305 76.8023 95.5755 82.5315 95.5755 89.5988C95.5755 96.6662 101.305 102.395 108.372 102.395Z"/>
<path d="M63.584 128C70.6513 128 76.3805 122.271 76.3805 115.204C76.3805 108.136 70.6513 102.407 63.584 102.407C56.5167 102.407 50.7875 108.136 50.7875 115.204C50.7875 122.271 56.5167 128 63.584 128Z"/>
</svg>
